<svg width="167px" height="146px" viewBox="0 0 167 146" version="1.1" xmlns="http://www.w3.org/2000/svg" xmlns:xlink="http://www.w3.org/1999/xlink">
    <polyline id="Fill-35" stroke="none" fill="#FFFFFF" fill-rule="evenodd" points="65.866 92.117 63.981 98.029 69.488 98.029 67.653 92.117 65.866 92.117"></polyline>
    <path d="M71.238,66.267 C71.565,65.906 71.639,65.355 71.639,64.044 C71.639,62.726 71.565,62.182 71.238,61.822 C71.021,61.598 70.618,61.527 69.559,61.527 L63.849,61.527 L63.849,66.561 L69.561,66.561 C70.62,66.56 71.021,66.489 71.238,66.267" id="Fill-36" stroke="none" fill="#FFFFFF" fill-rule="evenodd"></path>
    <path d="M95.313,44.186 C96.902,44.184 100.578,40.255 100.578,39.388 C100.578,39.166 100.441,39.083 100.244,39.083 C100.051,39.083 99.797,39.2 99.658,39.283 C97.793,40.56 95.928,42.261 94.646,43.823 C94.867,44.157 95.174,44.186 95.313,44.186" id="Fill-37" stroke="none" fill="#FFFFFF" fill-rule="evenodd"></path>
    <path d="M96.272,61.744 L92.592,61.744 C91.498,61.744 91.139,61.822 90.915,62.037 C90.66,62.293 90.475,63.094 90.475,68.672 C90.475,74.289 90.658,75.057 90.915,75.311 C91.139,75.535 91.5,75.606 92.592,75.606 L96.272,75.606 C97.366,75.606 97.727,75.535 97.951,75.311 C98.205,75.055 98.389,74.254 98.389,68.672 C98.389,63.094 98.206,62.293 97.951,62.037 C97.727,61.822 97.364,61.744 96.272,61.744" id="Fill-38" stroke="none" fill="#FFFFFF" fill-rule="evenodd"></path>
    <path d="M98.183,95.945 C98.511,95.586 98.589,95.036 98.589,93.723 C98.589,92.41 98.511,91.861 98.183,91.495 C97.967,91.278 97.566,91.206 96.507,91.206 L90.792,91.206 L90.792,96.24 L96.507,96.24 C97.566,96.24 97.966,96.164 98.183,95.945" id="Fill-39" stroke="none" fill="#FFFFFF" fill-rule="evenodd"></path>
    <g id="Group-43" stroke="none" stroke-width="1" fill="none" fill-rule="evenodd">
        <path d="M124.81,105.43 C126.459,105.43 127.077,105.318 127.441,104.959 C127.843,104.553 127.987,103.463 127.987,98.358 C127.987,93.213 127.843,92.158 127.441,91.751 C127.075,91.387 126.457,91.278 124.81,91.278 L118.797,91.278 L118.866,105.43 L124.81,105.43" id="Fill-40" fill="#FFFFFF"></path>
        <path d="M137.185,61.598 L134.549,61.598 L134.549,81.44 L126.15,81.44 L117.159,66.888 L117.159,75.75 L119.854,75.75 L119.889,81.438 L107.713,81.438 L107.713,75.75 L110.41,75.75 L110.41,61.596 L107.713,61.596 L107.713,55.906 L119.32,55.906 L127.807,68.964 L127.807,61.595 L125.291,61.595 L125.291,55.904 L137.185,55.904 L137.185,61.598 L137.185,61.598 Z M29.478,75.751 L36.357,75.751 L36.357,61.598 L29.478,61.598 L29.478,55.908 L51.618,55.908 L51.618,61.598 L44.744,61.598 L44.744,75.751 L51.618,75.751 L51.618,81.44 L29.478,81.44 L29.478,75.751 L29.478,75.751 Z M49.775,105.43 L49.775,111.12 L36.535,111.12 L36.535,105.432 L39.416,105.432 L39.416,101.459 L32.01,91.278 L29.479,91.278 L29.479,85.588 L42.733,85.588 L42.733,91.206 L40.511,91.206 L43.316,95.586 L43.462,95.586 L46.492,91.206 L44.266,91.206 L44.266,85.588 L57.034,85.588 L57.034,91.278 L54.444,91.278 L46.892,101.348 L46.892,105.43 L49.775,105.43 L49.775,105.43 Z M66.618,75.751 L66.618,81.44 L53.673,81.44 L53.673,75.751 L56.368,75.751 L56.368,61.598 L53.673,61.598 L53.673,55.908 L73.428,55.908 C75.615,55.908 77.04,56.275 78.022,57.253 C79.157,58.386 79.518,59.809 79.518,62.982 C79.518,67.512 78.315,68.599 75.363,69.184 L79.229,75.751 L81.67,75.751 L81.67,81.44 L73.784,81.44 L68.134,71.811 L63.849,71.811 L63.849,75.751 L66.618,75.751 L66.618,75.751 Z M106.265,68.674 C106.265,75.716 105.429,78.599 103.927,80.054 C102.948,81.043 101.848,81.441 99.189,81.441 L89.674,81.441 C87.014,81.441 85.918,81.043 84.937,80.054 C83.435,78.599 82.601,75.716 82.601,68.674 C82.601,61.634 83.435,58.756 84.937,57.299 C85.92,56.309 87.014,55.91 89.674,55.91 L99.189,55.91 C101.848,55.91 102.948,56.309 103.927,57.299 C105.429,58.754 106.265,61.632 106.265,68.674 L106.265,68.674 Z M103.185,29.92 C101.147,30.158 98.582,30.376 96.046,30.559 C94.114,31.098 92.65,32.265 91.469,33.381 C87.682,36.983 85.037,38.854 84.329,39.749 C86.142,38.86 87.197,38.194 88.649,38.194 C89.514,38.194 91.131,39.083 91.131,40.228 C91.131,40.562 91.017,40.701 90.543,41.118 C89.206,42.263 84.944,45.602 84.944,47.025 C84.944,47.307 85.11,47.413 85.308,47.413 C85.864,47.413 87.592,46.269 89.206,45.017 C90.145,44.294 91.114,42.922 91.398,42.488 C92.194,41.294 93.287,40.189 94.422,39.166 C96.648,37.161 98.349,36.271 99.411,36.271 C99.995,36.271 100.771,36.856 101.474,37.638 C102.472,38.556 102.556,39.032 102.556,39.39 C102.556,42.068 97.961,45.857 95.874,45.857 C95.288,45.857 94.451,45.524 93.839,44.878 C93.311,45.685 93.001,46.384 93.001,46.884 C93.001,47.33 93.229,47.917 94.09,47.917 C94.591,47.917 95.199,47.745 95.54,47.639 C100.634,45.768 103.307,43.289 103.564,43.289 C103.783,43.289 103.808,43.462 103.808,43.567 C103.808,43.874 102.697,45.156 101.554,46.189 C99.519,48.051 96.765,50.006 94.036,50.006 C92.847,50.006 90.338,47.318 90.19,46.14 C88.496,47.701 85.669,49.75 84.361,49.75 C82.777,49.75 81.966,47.8 81.966,46.411 C81.966,44.656 84.114,42.595 86.004,40.726 C83.833,41.65 81.382,43.738 77.507,48.473 C77.284,48.724 76.81,49.835 76.503,49.835 C75.974,49.835 74.135,48.356 74.135,47.33 C74.135,47.191 74.219,46.94 74.385,46.691 C77.853,41.622 85.113,34.921 89.553,30.933 C88.425,30.983 87.431,31.01 86.719,31.01 C85.855,31.01 83.323,33.071 81.424,34.911 C79.195,37.077 73.572,42.568 69.922,47.307 C67.747,50.115 68.026,51.009 67.608,51.009 C66.491,51.009 64.569,47.692 64.569,47.053 C64.569,45.297 69.612,40.452 72.148,37.996 C76.41,33.878 78.861,31.733 79.362,31.343 C79.588,31.177 80.033,30.866 80.033,30.866 C74.133,29.832 67.882,28.032 64.135,29.07 C59.417,30.376 56.939,40.516 63.767,38.067 C66.654,37.034 69.288,34.784 70.867,32.827 C71.479,32.065 71.868,32.444 71.209,33.478 C69.087,36.8 65.821,39.956 59.502,40.174 C53.502,40.377 54.662,30.866 61.887,27.747 C64.763,26.507 69.088,27.024 74.602,27.024 C87.583,27.024 100.229,26.236 100.79,26.236 C101.149,26.236 101.233,25.907 103.739,27.913 C104.101,28.22 105.079,28.802 105.079,29.253 C105.079,29.587 103.908,29.836 103.185,29.92 L103.185,29.92 Z M80.618,111.118 L69.159,111.118 L69.159,105.54 L71.494,105.54 L70.874,103.352 L62.592,103.352 L62.007,105.54 L64.342,105.54 L64.342,111.118 L51.618,111.118 L51.618,105.43 L54.534,105.43 L61.298,85.478 L72.781,85.478 L79.518,105.43 L83.316,105.43 L83.316,91.278 L80.619,91.278 L80.619,85.588 L100.38,85.588 C102.563,85.588 103.988,85.954 104.974,86.938 C106.105,88.072 106.466,89.49 106.466,92.669 C106.466,97.185 105.263,98.286 102.309,98.869 L106.176,105.432 L111.318,105.432 L111.318,91.28 L108.621,91.28 L108.621,85.59 L126.022,85.59 C129.703,85.59 131.676,86.063 133.208,87.597 C134.952,89.349 135.869,91.976 135.869,98.361 C135.869,104.736 134.952,107.365 133.208,109.109 C131.676,110.644 129.703,111.12 126.022,111.12 L100.735,111.12 L95.079,101.49 L90.793,101.49 L90.793,105.43 L93.566,105.43 L93.566,111.118 L80.618,111.118 L80.618,111.118 Z M162.585,43.66 L87.092,0.997 C85.022,-0.238 81.642,-0.238 79.572,0.997 L4.078,43.66 C2.011,44.9 0.319,47.878 0.319,50.291 L0.319,112.65 C0.319,115.06 2.206,117.593 4.515,118.282 L79.135,145.478 C81.444,146.174 85.218,146.174 87.526,145.478 L162.149,118.282 C164.455,117.593 166.345,115.06 166.345,112.65 L166.345,50.291 C166.344,47.88 164.648,44.9 162.585,43.66 L162.585,43.66 Z" id="Fill-42" fill="#FFFFFF"></path>
    </g>
</svg>
